{
	"asset":{
		"generator":"Khronos glTF Blender I/O v4.3.47",
		"version":"2.0"
	},
	"scene":0,
	"scenes":[
		{
			"name":"Scene",
			"nodes":[
				66
			]
		}
	],
	"nodes":[
		{
			"name":"Head",
			"rotation":[
				-0.12743794918060303,
				0,
				0,
				0.9918465614318848
			],
			"translation":[
				0,
				0.07329618185758591,
				1.955777406692505e-08
			]
		},
		{
			"children":[
				0
			],
			"name":"neck_01",
			"rotation":[
				0.25144970417022705,
				0,
				0,
				0.9678703546524048
			],
			"translation":[
				0,
				0.18317055702209473,
				-3.725290298461914e-09
			]
		},
		{
			"name":"index_04_leaf_l",
			"rotation":[
				-1.955777229056821e-08,
				1,
				-5.520486411753067e-14,
				3.651776296464959e-06
			],
			"translation":[
				-1.1577867553569376e-09,
				0.02030891552567482,
				-5.542349867937446e-08
			]
		},
		{
			"children":[
				2
			],
			"name":"index_03_l",
			"rotation":[
				-3.669343162648886e-10,
				-1.3780088181647443e-12,
				5.2166637033224106e-05,
				1
			],
			"translation":[
				1.635271473787725e-09,
				0.02361038327217102,
				-5.5948476074263453e-08
			]
		},
		{
			"children":[
				3
			],
			"name":"index_02_l",
			"rotation":[
				-5.713413298025216e-09,
				-1.0338166589463071e-07,
				-0.0002848557196557522,
				1
			],
			"scale":[
				0.9999999403953552,
				1,
				1
			],
			"translation":[
				1.4524630387313664e-09,
				0.027511605992913246,
				-6.19527469325476e-08
			]
		},
		{
			"children":[
				4
			],
			"name":"index_01_l",
			"rotation":[
				-0.010281852446496487,
				0.7070345282554626,
				-0.010281938128173351,
				0.7070295214653015
			],
			"scale":[
				1.0000001192092896,
				1.0000001192092896,
				1
			],
			"translation":[
				0.007200004067271948,
				0.09890005737543106,
				0.026900002732872963
			]
		},
		{
			"name":"middle_04_leaf_l",
			"rotation":[
				2.1420422768869685e-08,
				1,
				8.845167301504628e-14,
				3.651776296464959e-06
			],
			"translation":[
				-6.493792170658708e-10,
				0.025719402357935905,
				-5.897206278859812e-08
			]
		},
		{
			"children":[
				6
			],
			"name":"middle_03_l",
			"rotation":[
				1.2700811069521478e-08,
				6.243638245306826e-11,
				-0.0018056866247206926,
				0.9999983906745911
			],
			"translation":[
				3.077730070799589e-09,
				0.025515876710414886,
				-4.0678898471924185e-08
			]
		},
		{
			"children":[
				7
			],
			"name":"middle_02_l",
			"rotation":[
				-8.723319844250454e-09,
				-1.0310836984217531e-07,
				0.0013384990161284804,
				0.9999991059303284
			],
			"translation":[
				5.295987648423761e-09,
				0.0316227450966835,
				-1.6640379385535198e-07
			]
		},
		{
			"children":[
				8
			],
			"name":"middle_01_l",
			"rotation":[
				-0.013418777845799923,
				0.7069819569587708,
				-0.013418870978057384,
				0.7069769501686096
			],
			"translation":[
				0.0052000307478010654,
				0.0969000831246376,
				0.004199996590614319
			]
		},
		{
			"name":"pinky_04_leaf_l",
			"rotation":[
				-2.7939673685750677e-08,
				1,
				-1.405421189582673e-13,
				3.651776296464959e-06
			],
			"translation":[
				8.052666089497507e-09,
				0.018222365528345108,
				-3.248115376663918e-08
			]
		},
		{
			"children":[
				10
			],
			"name":"pinky_03_l",
			"rotation":[
				6.426387866298455e-09,
				3.250334723592374e-11,
				-0.0009135868749581277,
				0.9999995827674866
			],
			"translation":[
				6.029949872754514e-10,
				0.02312614396214485,
				-2.3480396293962258e-08
			]
		},
		{
			"children":[
				11
			],
			"name":"pinky_02_l",
			"rotation":[
				-2.7481694697684134e-09,
				-1.0288947294156969e-07,
				0.0005339795025065541,
				0.9999998807907104
			],
			"scale":[
				0.9999998807907104,
				0.9999999403953552,
				0.9999999403953552
			],
			"translation":[
				7.443304639309645e-09,
				0.02673175185918808,
				1.0519342197312653e-07
			]
		},
		{
			"children":[
				12
			],
			"name":"pinky_01_l",
			"rotation":[
				-0.017198944464325905,
				0.7069001197814941,
				-0.017199069261550903,
				0.7068950533866882
			],
			"translation":[
				0.007600073236972094,
				0.08210007101297379,
				-0.039700012654066086
			]
		},
		{
			"name":"ring_04_leaf_l",
			"rotation":[
				3.259631231600224e-09,
				1,
				8.60834163283683e-15,
				3.651776296464959e-06
			],
			"scale":[
				1,
				0.9999997019767761,
				1
			],
			"translation":[
				5.408764991443604e-09,
				0.024500684812664986,
				-1.0165948793883217e-07
			]
		},
		{
			"children":[
				14
			],
			"name":"ring_03_l",
			"rotation":[
				1.3992098146786702e-08,
				5.277010772797297e-11,
				-0.001989546697586775,
				0.9999980330467224
			],
			"translation":[
				1.216903910972178e-09,
				0.02390024997293949,
				3.7440642586261674e-08
			]
		},
		{
			"children":[
				15
			],
			"name":"ring_02_l",
			"rotation":[
				-2.0065385797352064e-08,
				-1.0361133462311045e-07,
				0.0028419289737939835,
				0.9999959468841553
			],
			"translation":[
				2.2646418074145913e-10,
				0.030401457101106644,
				2.461077741600093e-08
			]
		},
		{
			"children":[
				16
			],
			"name":"ring_01_l",
			"rotation":[
				-0.003488825634121895,
				0.7071006894111633,
				-0.003488850547000766,
				0.7070956230163574
			],
			"translation":[
				0.0061000618152320385,
				0.09150008112192154,
				-0.020100008696317673
			]
		},
		{
			"name":"thumb_04_leaf_l",
			"rotation":[
				-3.214791988170873e-08,
				0.4946408271789551,
				-8.706729204277508e-08,
				0.8690974712371826
			],
			"scale":[
				0.9999999403953552,
				1,
				0.9999999403953552
			],
			"translation":[
				3.714376362040639e-08,
				0.02920295111835003,
				-1.30385160446167e-08
			]
		},
		{
			"children":[
				18
			],
			"name":"thumb_03_l",
			"rotation":[
				-0.000662889564409852,
				1.2217442417750135e-05,
				0.00018048442143481225,
				0.9999997615814209
			],
			"scale":[
				1,
				0.9999999403953552,
				0.9999999403953552
			],
			"translation":[
				5.217316356720403e-08,
				0.03312811255455017,
				2.176966518163681e-08
			]
		},
		{
			"children":[
				19
			],
			"name":"thumb_02_l",
			"rotation":[
				-3.2125040888786316e-05,
				-9.653274901211262e-06,
				0.00021666193788405508,
				1
			],
			"scale":[
				1,
				1.0000001192092896,
				1
			],
			"translation":[
				-7.912603905424476e-08,
				0.03337272256612778,
				3.5390257835388184e-08
			]
		},
		{
			"children":[
				20
			],
			"name":"thumb_01_l",
			"rotation":[
				0.25457319617271423,
				0.9432656168937683,
				0.20653538405895233,
				0.052778854966163635
			],
			"translation":[
				0.02410006709396839,
				0.022800061851739883,
				0.02680000476539135
			]
		},
		{
			"children":[
				5,
				9,
				13,
				17,
				21
			],
			"name":"hand_l",
			"rotation":[
				-0.015717465430498123,
				-5.95974256611953e-07,
				-1.0055396515440407e-08,
				0.9998764991760254
			],
			"scale":[
				1,
				0.9999999403953552,
				1
			],
			"translation":[
				-1.4780334822717123e-07,
				0.20680229365825653,
				5.56462964595994e-09
			]
		},
		{
			"children":[
				22
			],
			"name":"lowerarm_l",
			"rotation":[
				0.03070647455751896,
				3.6100504075875506e-05,
				-1.0834991144292871e-06,
				0.9995284676551819
			],
			"translation":[
				1.787946075637592e-07,
				0.21679744124412537,
				-2.3283064365386963e-10
			]
		},
		{
			"children":[
				23
			],
			"name":"upperarm_l",
			"rotation":[
				0.1651919037103653,
				0.687670111656189,
				-0.1646663248538971,
				0.6875365376472473
			],
			"scale":[
				0.9999999403953552,
				0.9999997615814209,
				0.9999999403953552
			],
			"translation":[
				-0.018702654168009758,
				0.1410231739282608,
				-0.03688592091202736
			]
		},
		{
			"children":[
				24
			],
			"name":"clavicle_l",
			"rotation":[
				-0.5360129475593567,
				-0.317361056804657,
				-0.39901435375213623,
				0.6728742122650146
			],
			"translation":[
				0.02669999934732914,
				0.1479257196187973,
				0.05725155398249626
			]
		},
		{
			"name":"index_04_leaf_r",
			"rotation":[
				-2.048909308882685e-08,
				-1,
				6.493187877567447e-14,
				3.651776296464959e-06
			],
			"translation":[
				-7.048583938740194e-10,
				0.02030891738831997,
				-5.5422418654416106e-08
			]
		},
		{
			"children":[
				26
			],
			"name":"index_03_r",
			"rotation":[
				-3.6691327753857195e-10,
				1.6685541837091478e-12,
				-5.2164774388074875e-05,
				1
			],
			"translation":[
				-1.636180968489498e-09,
				0.02361038513481617,
				-5.594735341674095e-08
			]
		},
		{
			"children":[
				27
			],
			"name":"index_02_r",
			"rotation":[
				9.35266086798947e-10,
				1.0322072796498105e-07,
				0.0002848557196557522,
				1
			],
			"scale":[
				0.9999999403953552,
				1,
				1
			],
			"translation":[
				-1.9945218809880316e-09,
				0.02751162461936474,
				-5.275590808651032e-08
			]
		},
		{
			"children":[
				28
			],
			"name":"index_01_r",
			"rotation":[
				-0.01028185710310936,
				-0.7070345878601074,
				0.010281931608915329,
				0.7070294618606567
			],
			"scale":[
				1.0000001192092896,
				1.0000001192092896,
				1
			],
			"translation":[
				-0.007200000341981649,
				0.09890005737543106,
				0.026900004595518112
			]
		},
		{
			"name":"middle_04_leaf_r",
			"rotation":[
				2.1420422768869685e-08,
				-1,
				-7.163059479332184e-14,
				3.651776296464959e-06
			],
			"translation":[
				6.493792170658708e-10,
				0.025719402357935905,
				-5.896917798509094e-08
			]
		},
		{
			"children":[
				30
			],
			"name":"middle_03_r",
			"rotation":[
				1.2701046436802699e-08,
				-6.392385926146105e-11,
				0.0018056866247206926,
				0.9999983906745911
			],
			"translation":[
				-3.077730070799589e-09,
				0.025515876710414886,
				-4.067574366217741e-08
			]
		},
		{
			"children":[
				31
			],
			"name":"middle_02_r",
			"rotation":[
				-3.534494696921797e-09,
				1.029626730542077e-07,
				-0.001338495290838182,
				0.9999991059303284
			],
			"translation":[
				-4.917637852486223e-09,
				0.031622759997844696,
				-1.5919862050850497e-07
			]
		},
		{
			"children":[
				32
			],
			"name":"middle_01_r",
			"rotation":[
				-0.013418779708445072,
				-0.7069820165634155,
				0.013418863527476788,
				0.7069768905639648
			],
			"translation":[
				-0.0052000246942043304,
				0.0969000831246376,
				0.004200001712888479
			]
		},
		{
			"name":"pinky_04_leaf_r",
			"rotation":[
				-2.7939673685750677e-08,
				-1,
				8.719878253704919e-14,
				3.6517765238386346e-06
			],
			"translation":[
				-8.05357558419928e-09,
				0.01822236366569996,
				-3.2494142487848876e-08
			]
		},
		{
			"children":[
				34
			],
			"name":"pinky_03_r",
			"rotation":[
				6.42616626578274e-09,
				-3.122481440076541e-11,
				0.0009135868749581277,
				0.9999995827674866
			],
			"translation":[
				-6.020854925736785e-10,
				0.023126142099499702,
				-2.3493470280300244e-08
			]
		},
		{
			"children":[
				35
			],
			"name":"pinky_02_r",
			"rotation":[
				3.666503767263407e-09,
				1.0285282314725919e-07,
				-0.0005339795025065541,
				0.9999998807907104
			],
			"scale":[
				0.9999998807907104,
				0.9999999403953552,
				0.9999999403953552
			],
			"translation":[
				-7.347807695623487e-09,
				0.02673170529305935,
				1.1386711662453308e-07
			]
		},
		{
			"children":[
				36
			],
			"name":"pinky_01_r",
			"rotation":[
				-0.017198951914906502,
				-0.7069001197814941,
				0.017199065536260605,
				0.7068950533866882
			],
			"translation":[
				-0.007600062061101198,
				0.08210007101297379,
				-0.039700012654066086
			]
		},
		{
			"name":"ring_04_leaf_r",
			"rotation":[
				3.259631231600224e-09,
				-1,
				-3.3347746425708112e-15,
				3.651776296464959e-06
			],
			"scale":[
				1,
				0.9999997019767761,
				1
			],
			"translation":[
				-5.408764991443604e-09,
				0.024500684812664986,
				-1.016592321434473e-07
			]
		},
		{
			"children":[
				38
			],
			"name":"ring_03_r",
			"rotation":[
				1.399210347585722e-08,
				-5.319595458574966e-11,
				0.001989546697586775,
				0.9999980330467224
			],
			"translation":[
				-1.216903910972178e-09,
				0.02390025183558464,
				3.74408060110909e-08
			]
		},
		{
			"children":[
				39
			],
			"name":"ring_02_r",
			"rotation":[
				-2.0653553534089042e-08,
				1.0361134883396517e-07,
				-0.0028419289737939835,
				0.9999959468841553
			],
			"translation":[
				-2.2919266484677792e-10,
				0.030401455238461494,
				2.3802591897492675e-08
			]
		},
		{
			"children":[
				40
			],
			"name":"ring_01_r",
			"rotation":[
				-0.0034888251684606075,
				-0.7071007490158081,
				0.003488850547000766,
				0.7070955634117126
			],
			"translation":[
				-0.00610005296766758,
				0.09150008112192154,
				-0.020100006833672523
			]
		},
		{
			"name":"thumb_04_leaf_r",
			"rotation":[
				-2.5718334129010145e-08,
				-0.4946407973766327,
				1.0314124665455893e-07,
				0.8690974712371826
			],
			"scale":[
				1,
				1,
				0.9999998807907104
			],
			"translation":[
				-6.692425813525915e-08,
				0.029203012585639954,
				-2.2351741790771484e-08
			]
		},
		{
			"children":[
				42
			],
			"name":"thumb_03_r",
			"rotation":[
				-0.0006629007402807474,
				-1.2108012015232816e-05,
				-0.00018043348973151296,
				0.9999997615814209
			],
			"scale":[
				1,
				0.9999999403953552,
				0.9999998807907104
			],
			"translation":[
				-1.710827746137511e-07,
				0.033128172159194946,
				-1.7113052308559418e-08
			]
		},
		{
			"children":[
				43
			],
			"name":"thumb_02_r",
			"rotation":[
				-3.216602635802701e-05,
				9.57364773057634e-06,
				-0.00021674610616173595,
				1
			],
			"scale":[
				0.9999998807907104,
				0.9999998211860657,
				0.9999998807907104
			],
			"translation":[
				-1.5884870663285255e-07,
				0.03337281197309494,
				3.725290298461914e-09
			]
		},
		{
			"children":[
				44
			],
			"name":"thumb_01_r",
			"rotation":[
				0.25457316637039185,
				-0.9432656168937683,
				-0.20653532445430756,
				0.05277874693274498
			],
			"scale":[
				1,
				1.0000001192092896,
				1.0000001192092896
			],
			"translation":[
				-0.024100063368678093,
				0.022800061851739883,
				0.02680000476539135
			]
		},
		{
			"children":[
				29,
				33,
				37,
				41,
				45
			],
			"name":"hand_r",
			"rotation":[
				-0.015717465430498123,
				6.555714548994729e-07,
				9.118563681909109e-09,
				0.9998764991760254
			],
			"scale":[
				1,
				0.9999999403953552,
				1
			],
			"translation":[
				1.4780334822717123e-07,
				0.20680229365825653,
				5.56462964595994e-09
			]
		},
		{
			"children":[
				46
			],
			"name":"lowerarm_r",
			"rotation":[
				0.03070647455751896,
				-3.6100504075875506e-05,
				1.0834991144292871e-06,
				0.9995284676551819
			],
			"translation":[
				-1.787946075637592e-07,
				0.21679744124412537,
				-2.3283064365386963e-10
			]
		},
		{
			"children":[
				47
			],
			"name":"upperarm_r",
			"rotation":[
				0.1651919037103653,
				-0.687670111656189,
				0.1646663248538971,
				0.6875365376472473
			],
			"scale":[
				0.9999999403953552,
				0.9999997615814209,
				0.9999999403953552
			],
			"translation":[
				0.018702654168009758,
				0.1410231739282608,
				-0.03688592091202736
			]
		},
		{
			"children":[
				48
			],
			"name":"clavicle_r",
			"rotation":[
				-0.5360129475593567,
				0.317361056804657,
				0.39901435375213623,
				0.6728742122650146
			],
			"translation":[
				-0.02669999934732914,
				0.1479257196187973,
				0.05725155398249626
			]
		},
		{
			"children":[
				1,
				25,
				49
			],
			"name":"spine_03",
			"rotation":[
				-0.12430351972579956,
				0,
				0,
				0.9922442436218262
			],
			"translation":[
				0,
				0.1133299395442009,
				-4.656612873077393e-10
			]
		},
		{
			"children":[
				50
			],
			"name":"spine_02",
			"rotation":[
				-0.03945204243063927,
				0,
				0,
				0.9992215037345886
			],
			"translation":[
				0,
				0.09046901762485504,
				3.259629011154175e-09
			]
		},
		{
			"children":[
				51
			],
			"name":"spine_01",
			"rotation":[
				-0.09154926240444183,
				0,
				0,
				0.9958005547523499
			],
			"scale":[
				1,
				1,
				0.9999999403953552
			],
			"translation":[
				0,
				0.10910805314779282,
				-2.421438694000244e-08
			]
		},
		{
			"name":"ball_leaf_l",
			"rotation":[
				-1.2564570234994087e-24,
				-4.371138473402425e-08,
				2.701955030657923e-17,
				1
			],
			"scale":[
				1,
				0.9999998807907104,
				1
			],
			"translation":[
				-1.1277460076897228e-09,
				0.06709999591112137,
				-2.1890800283586032e-10
			]
		},
		{
			"children":[
				53
			],
			"name":"ball_l",
			"rotation":[
				-1.006388750113274e-08,
				-0.9731351137161255,
				0.23023493587970734,
				4.253708496548825e-08
			],
			"scale":[
				1,
				1,
				0.9999999403953552
			],
			"translation":[
				7.450580596923828e-09,
				0.13546107709407806,
				1.8687933422967262e-09
			]
		},
		{
			"children":[
				54
			],
			"name":"foot_l",
			"rotation":[
				-0.5722690224647522,
				3.788255126258022e-11,
				2.1999417912366148e-11,
				0.820065975189209
			],
			"scale":[
				1,
				0.9999999403953552,
				1
			],
			"translation":[
				7.457293449419922e-09,
				0.3905637860298157,
				-9.199569994677859e-10
			]
		},
		{
			"children":[
				55
			],
			"name":"calf_l",
			"rotation":[
				0.05602465942502022,
				0.00014836138871032745,
				-8.324976988660637e-06,
				0.9984293580055237
			],
			"scale":[
				0.9999999403953552,
				1,
				1
			],
			"translation":[
				-2.907967200371786e-09,
				0.3651001453399658,
				4.001776687800884e-11
			]
		},
		{
			"children":[
				56
			],
			"name":"thigh_l",
			"rotation":[
				0.989867627620697,
				-2.1099471268826164e-05,
				-0.00014708912931382656,
				0.14199331402778625
			],
			"scale":[
				0.9999999403953552,
				0.9999999403953552,
				1.0000003576278687
			],
			"translation":[
				0.0771000012755394,
				0.01982460357248783,
				0.00043962709605693817
			]
		},
		{
			"name":"ball_leaf_r",
			"rotation":[
				-1.2564570234994087e-24,
				-4.371138473402425e-08,
				2.701955030657923e-17,
				1
			],
			"scale":[
				1,
				0.9999998807907104,
				1
			],
			"translation":[
				-1.1277460076897228e-09,
				0.06709999591112137,
				2.1890800283586032e-10
			]
		},
		{
			"children":[
				58
			],
			"name":"ball_r",
			"rotation":[
				-1.006388750113274e-08,
				-0.9731351137161255,
				0.23023493587970734,
				4.253708496548825e-08
			],
			"scale":[
				1,
				1,
				0.9999999403953552
			],
			"translation":[
				-7.450580596923828e-09,
				0.13546107709407806,
				1.8564969561651878e-09
			]
		},
		{
			"children":[
				59
			],
			"name":"foot_r",
			"rotation":[
				-0.5722690224647522,
				3.788255126258022e-11,
				2.1999417912366148e-11,
				0.820065975189209
			],
			"scale":[
				1,
				0.9999999403953552,
				1
			],
			"translation":[
				-7.4438677444277346e-09,
				0.3905637860298157,
				-9.426881497631712e-10
			]
		},
		{
			"children":[
				60
			],
			"name":"calf_r",
			"rotation":[
				0.05602465942502022,
				0.00014836138871032745,
				-8.324976988660637e-06,
				0.9984293580055237
			],
			"scale":[
				0.9999999403953552,
				1,
				1
			],
			"translation":[
				-2.907967200371786e-09,
				0.3651001453399658,
				1.8517312128096819e-09
			]
		},
		{
			"children":[
				61
			],
			"name":"thigh_r",
			"rotation":[
				0.989867627620697,
				-2.1099471268826164e-05,
				-0.00014708912931382656,
				0.14199331402778625
			],
			"scale":[
				0.9999999403953552,
				0.9999999403953552,
				1.0000003576278687
			],
			"translation":[
				-0.0771000012755394,
				0.01982460357248783,
				0.00043962709605693817
			]
		},
		{
			"children":[
				52,
				57,
				62
			],
			"name":"pelvis",
			"rotation":[
				0.8004286289215088,
				0,
				0,
				0.5994280576705933
			],
			"scale":[
				1,
				0.9999999403953552,
				0.9999998807907104
			],
			"translation":[
				0,
				0.036599934101104736,
				0.8079000115394592
			]
		},
		{
			"children":[
				63
			],
			"name":"root",
			"rotation":[
				-0.7071067690849304,
				0,
				0,
				0.7071067690849304
			],
			"scale":[
				1,
				0.9999999403953552,
				1
			]
		},
		{
			"mesh":0,
			"name":"Hair_Buzzed_Teen",
			"skin":0
		},
		{
			"children":[
				65,
				64
			],
			"name":"Armature"
		}
	],
	"materials":[
		{
			"doubleSided":true,
			"name":"MI_Hair_1",
			"normalTexture":{
				"index":0
			},
			"pbrMetallicRoughness":{
				"baseColorTexture":{
					"index":1
				},
				"metallicFactor":0
			}
		}
	],
	"meshes":[
		{
			"name":"Cylinder.001",
			"primitives":[
				{
					"attributes":{
						"POSITION":0,
						"NORMAL":1,
						"TEXCOORD_0":2,
						"JOINTS_0":3,
						"WEIGHTS_0":4
					},
					"indices":5,
					"material":0
				}
			]
		}
	],
	"textures":[
		{
			"sampler":0,
			"source":0
		},
		{
			"sampler":0,
			"source":1
		}
	],
	"images":[
		{
			"mimeType":"image/png",
			"name":"T_Hair_1_Normal",
			"uri":"T_Hair_1_Normal.png"
		},
		{
			"mimeType":"image/png",
			"name":"T_Hair_1_BaseColor",
			"uri":"T_Hair_1_BaseColor.png"
		}
	],
	"skins":[
		{
			"inverseBindMatrices":6,
			"joints":[
				64,
				63,
				52,
				51,
				50,
				1,
				0,
				25,
				24,
				23,
				22,
				5,
				4,
				3,
				2,
				9,
				8,
				7,
				6,
				13,
				12,
				11,
				10,
				17,
				16,
				15,
				14,
				21,
				20,
				19,
				18,
				49,
				48,
				47,
				46,
				29,
				28,
				27,
				26,
				33,
				32,
				31,
				30,
				37,
				36,
				35,
				34,
				41,
				40,
				39,
				38,
				45,
				44,
				43,
				42,
				57,
				56,
				55,
				54,
				53,
				62,
				61,
				60,
				59,
				58
			],
			"name":"Armature"
		}
	],
	"accessors":[
		{
			"bufferView":0,
			"componentType":5126,
			"count":466,
			"max":[
				0.07265680283308029,
				1.5719361305236816,
				0.07895687222480774
			],
			"min":[
				-0.07256995141506195,
				1.4128304719924927,
				-0.10040241479873657
			],
			"type":"VEC3"
		},
		{
			"bufferView":1,
			"componentType":5126,
			"count":466,
			"type":"VEC3"
		},
		{
			"bufferView":2,
			"componentType":5126,
			"count":466,
			"type":"VEC2"
		},
		{
			"bufferView":3,
			"componentType":5121,
			"count":466,
			"type":"VEC4"
		},
		{
			"bufferView":4,
			"componentType":5126,
			"count":466,
			"type":"VEC4"
		},
		{
			"bufferView":5,
			"componentType":5123,
			"count":2490,
			"type":"SCALAR"
		},
		{
			"bufferView":6,
			"componentType":5126,
			"count":65,
			"type":"MAT4"
		}
	],
	"bufferViews":[
		{
			"buffer":0,
			"byteLength":5592,
			"byteOffset":0,
			"target":34962
		},
		{
			"buffer":0,
			"byteLength":5592,
			"byteOffset":5592,
			"target":34962
		},
		{
			"buffer":0,
			"byteLength":3728,
			"byteOffset":11184,
			"target":34962
		},
		{
			"buffer":0,
			"byteLength":1864,
			"byteOffset":14912,
			"target":34962
		},
		{
			"buffer":0,
			"byteLength":7456,
			"byteOffset":16776,
			"target":34962
		},
		{
			"buffer":0,
			"byteLength":4980,
			"byteOffset":24232,
			"target":34963
		},
		{
			"buffer":0,
			"byteLength":4160,
			"byteOffset":29212
		}
	],
	"samplers":[
		{
			"magFilter":9729,
			"minFilter":9987
		}
	],
	"buffers":[
		{
			"byteLength":33372,
			"uri":"Hair_Buzzed_Teen.bin"
		}
	]
}
