{
	"asset":{
		"generator":"Khronos glTF Blender I/O v4.3.47",
		"version":"2.0"
	},
	"scene":0,
	"scenes":[
		{
			"name":"Scene",
			"nodes":[
				66
			]
		}
	],
	"nodes":[
		{
			"name":"Head",
			"rotation":[
				-0.20451287925243378,
				1.107612805537433e-19,
				-6.922580034608956e-21,
				0.9788638949394226
			],
			"translation":[
				0,
				0.06139219179749489,
				-4.470348358154297e-08
			]
		},
		{
			"children":[
				0
			],
			"name":"neck_01",
			"rotation":[
				0.3085317611694336,
				-4.274282624427017e-20,
				5.699043714647641e-20,
				0.951214075088501
			],
			"scale":[
				1,
				0.9999999403953552,
				0.9999999403953552
			],
			"translation":[
				0,
				0.1710132360458374,
				7.450580596923828e-09
			]
		},
		{
			"name":"index_04_leaf_l",
			"rotation":[
				-8.381903171539307e-09,
				-1,
				1.9274863213218467e-14,
				3.6517765238386346e-06
			],
			"translation":[
				-1.1459633242338896e-10,
				0.020109010860323906,
				2.9653634214810154e-08
			]
		},
		{
			"children":[
				2
			],
			"name":"index_03_l",
			"rotation":[
				-1.152220541200677e-09,
				-4.199307568342192e-12,
				-0.00015726499259471893,
				1
			],
			"translation":[
				1.191438059322536e-10,
				0.023710429668426514,
				-9.10961617250905e-08
			]
		},
		{
			"children":[
				3
			],
			"name":"index_02_l",
			"rotation":[
				-9.136120304731321e-09,
				-7.110598687631864e-08,
				-0.0015591722913086414,
				0.9999988079071045
			],
			"translation":[
				7.821654435247183e-11,
				0.02650931291282177,
				-1.0328032118422925e-07
			]
		},
		{
			"children":[
				4
			],
			"name":"index_01_l",
			"rotation":[
				-0.00453789159655571,
				0.7070897817611694,
				-0.0045378548093140125,
				0.707094669342041
			],
			"translation":[
				0.0035999994724988937,
				0.07708564400672913,
				0.031049180775880814
			]
		},
		{
			"name":"middle_04_leaf_l",
			"rotation":[
				-1.2155276785108526e-09,
				0.9999921321868896,
				-3.065612190766842e-07,
				0.003970330581068993
			],
			"translation":[
				-3.0899354186431083e-09,
				0.02520083822309971,
				-2.4220355498982826e-08
			]
		},
		{
			"children":[
				6
			],
			"name":"middle_03_l",
			"rotation":[
				0.00396881764754653,
				5.4909733080421574e-06,
				-6.94131774281459e-09,
				0.9999921321868896
			],
			"scale":[
				1,
				0.9999999403953552,
				1
			],
			"translation":[
				1.86174042848819e-09,
				0.027500059455633163,
				-1.503822488757578e-07
			]
		},
		{
			"children":[
				7
			],
			"name":"middle_02_l",
			"rotation":[
				0.003226290224120021,
				1.0396270226920024e-06,
				-2.7643757505302347e-08,
				0.9999948143959045
			],
			"scale":[
				1,
				0.9999999403953552,
				1
			],
			"translation":[
				4.367805672700342e-09,
				0.03100070171058178,
				-8.056844080783776e-09
			]
		},
		{
			"children":[
				8
			],
			"name":"middle_01_l",
			"rotation":[
				0.002517769346013665,
				0.7070680856704712,
				0.007080280687659979,
				0.7071055173873901
			],
			"scale":[
				1,
				0.9999999403953552,
				1
			],
			"translation":[
				0.0015000015264376998,
				0.07918821275234222,
				0.008775665424764156
			]
		},
		{
			"name":"pinky_04_leaf_l",
			"rotation":[
				-1.862645149230957e-08,
				-1,
				6.882146762199337e-14,
				3.65177675121231e-06
			],
			"scale":[
				1,
				1,
				0.9999999403953552
			],
			"translation":[
				-4.220055416226387e-10,
				0.017817948013544083,
				1.1116563314317318e-07
			]
		},
		{
			"children":[
				10
			],
			"name":"pinky_03_l",
			"rotation":[
				1.2068738897141884e-08,
				2.9113420008108903e-11,
				0.0016472093993797898,
				0.9999986886978149
			],
			"scale":[
				0.9999999403953552,
				0.9999999403953552,
				0.9999999403953552
			],
			"translation":[
				5.167748895473778e-09,
				0.0228265393525362,
				7.944308322294091e-09
			]
		},
		{
			"children":[
				11
			],
			"name":"pinky_02_l",
			"rotation":[
				-1.0775275782748395e-08,
				-7.123728806845975e-08,
				-0.0013059295015409589,
				0.9999991655349731
			],
			"translation":[
				1.5370460459962487e-10,
				0.02632727287709713,
				1.0776517456179135e-09
			]
		},
		{
			"children":[
				12
			],
			"name":"pinky_01_l",
			"rotation":[
				-0.011321160942316055,
				0.707013726234436,
				-0.01132107712328434,
				0.7070186138153076
			],
			"scale":[
				1.0000001192092896,
				1.000000238418579,
				1
			],
			"translation":[
				0.0033000491093844175,
				0.07023879885673523,
				-0.03184954449534416
			]
		},
		{
			"name":"ring_04_leaf_l",
			"rotation":[
				-8.149073416063857e-09,
				-1,
				2.8963342954459875e-14,
				3.651776296464959e-06
			],
			"scale":[
				1,
				0.9999997615814209,
				1
			],
			"translation":[
				6.175469025038183e-10,
				0.024201877415180206,
				1.1346619288588045e-07
			]
		},
		{
			"children":[
				14
			],
			"name":"ring_03_l",
			"rotation":[
				-3.0985802368377335e-08,
				-1.0594912447370319e-10,
				-0.004229532089084387,
				0.9999910593032837
			],
			"scale":[
				1,
				0.9999999403953552,
				1
			],
			"translation":[
				1.7826096154749393e-09,
				0.025400271639227867,
				-4.7237492140084214e-08
			]
		},
		{
			"children":[
				15
			],
			"name":"ring_02_l",
			"rotation":[
				9.200300965517272e-09,
				-7.080086561472854e-08,
				0.0013758905697613955,
				0.9999990463256836
			],
			"translation":[
				4.200046532787383e-09,
				0.029900649562478065,
				9.152543611889996e-08
			]
		},
		{
			"children":[
				16
			],
			"name":"ring_01_l",
			"rotation":[
				0.0024342210963368416,
				0.7071000933647156,
				0.002434201305732131,
				0.7071050405502319
			],
			"scale":[
				1.0000001192092896,
				1.0000001192092896,
				1
			],
			"translation":[
				0.0019000613829120994,
				0.0735711082816124,
				-0.012102504260838032
			]
		},
		{
			"name":"thumb_04_leaf_l",
			"rotation":[
				-6.572944499794175e-08,
				0.4777791202068329,
				-1.587577997952394e-07,
				0.8784799575805664
			],
			"scale":[
				0.9999998807907104,
				1,
				0.9999998807907104
			],
			"translation":[
				8.248025551438332e-08,
				0.02699865773320198,
				3.073364496231079e-08
			]
		},
		{
			"children":[
				18
			],
			"name":"thumb_03_l",
			"rotation":[
				-0.00283104763366282,
				-2.3340000552707352e-05,
				0.001646495657041669,
				0.9999946355819702
			],
			"translation":[
				1.0755718449217966e-07,
				0.03074369952082634,
				-2.6542693376541138e-08
			]
		},
		{
			"children":[
				19
			],
			"name":"thumb_02_l",
			"rotation":[
				0.0025806857738643885,
				0.00015052882372401655,
				0.0008950494811870158,
				0.9999963045120239
			],
			"scale":[
				0.9999999403953552,
				0.9999998807907104,
				1
			],
			"translation":[
				1.6248668543994427e-07,
				0.030890848487615585,
				5.3085386753082275e-08
			]
		},
		{
			"children":[
				20
			],
			"name":"thumb_01_l",
			"rotation":[
				0.26631253957748413,
				0.9475056529045105,
				0.17316247522830963,
				0.03640652820467949
			],
			"scale":[
				0.9999999403953552,
				0.9999998211860657,
				1
			],
			"translation":[
				0.010200019925832748,
				0.0007769092917442322,
				0.02381274290382862
			]
		},
		{
			"children":[
				5,
				9,
				13,
				17,
				21
			],
			"name":"hand_l",
			"rotation":[
				-0.0220965426415205,
				-1.9664730643853545e-06,
				-3.652639080087283e-08,
				0.9997557997703552
			],
			"translation":[
				-1.36695263108777e-07,
				0.20249487459659576,
				2.0436345948837698e-09
			]
		},
		{
			"children":[
				22
			],
			"name":"lowerarm_l",
			"rotation":[
				0.02446901984512806,
				-1.7848398670139431e-07,
				9.122859978560882e-08,
				0.9997006058692932
			],
			"translation":[
				5.89149706797798e-08,
				0.20743483304977417,
				1.3947101251687855e-09
			]
		},
		{
			"children":[
				23
			],
			"name":"upperarm_l",
			"rotation":[
				0.17247338593006134,
				0.6859287619590759,
				-0.17183834314346313,
				0.685730516910553
			],
			"translation":[
				-0.0014498346718028188,
				0.12171714007854462,
				-0.010585884563624859
			]
		},
		{
			"children":[
				24
			],
			"name":"clavicle_l",
			"rotation":[
				-0.547312319278717,
				-0.32054534554481506,
				-0.3912510871887207,
				0.6668002009391785
			],
			"scale":[
				0.9999999403953552,
				1,
				1
			],
			"translation":[
				0.025299999862909317,
				0.11536432802677155,
				0.03864765912294388
			]
		},
		{
			"name":"index_04_leaf_r",
			"rotation":[
				1.3969838619232178e-08,
				1,
				3.642107841987825e-14,
				3.65177675121231e-06
			],
			"scale":[
				1,
				1,
				0.9999999403953552
			],
			"translation":[
				2.9076545615680516e-09,
				0.0203088466078043,
				1.5006419573637686e-07
			]
		},
		{
			"children":[
				26
			],
			"name":"index_03_r",
			"rotation":[
				1.7802620488893695e-09,
				-5.138889314082462e-12,
				-0.0002429857850074768,
				1
			],
			"translation":[
				5.793481250293553e-10,
				0.023310547694563866,
				3.327850350842709e-08
			]
		},
		{
			"children":[
				27
			],
			"name":"index_02_r",
			"rotation":[
				-1.5030410693839258e-08,
				7.111153621508493e-08,
				0.002245974726974964,
				0.9999974966049194
			],
			"translation":[
				9.940777090378106e-10,
				0.027408922091126442,
				1.3081447036711324e-08
			]
		},
		{
			"children":[
				28
			],
			"name":"index_01_r",
			"rotation":[
				-0.0031709878239780664,
				-0.707097053527832,
				0.00317096384242177,
				0.7071022987365723
			],
			"scale":[
				1,
				1.0000001192092896,
				1
			],
			"translation":[
				-0.0036000024992972612,
				0.07609224319458008,
				0.03126532584428787
			]
		},
		{
			"name":"middle_04_leaf_r",
			"rotation":[
				7.450581485102248e-09,
				1,
				1.5212232312039088e-14,
				3.65177675121231e-06
			],
			"scale":[
				0.9999999403953552,
				0.9999999403953552,
				0.9999999403953552
			],
			"translation":[
				-3.0740920919924974e-10,
				0.025515923276543617,
				1.4199969200490159e-08
			]
		},
		{
			"children":[
				30
			],
			"name":"middle_03_r",
			"rotation":[
				-1.3442629231974479e-08,
				4.7040562417555165e-11,
				0.0018347384175285697,
				0.9999983310699463
			],
			"scale":[
				1,
				0.9999999403953552,
				1
			],
			"translation":[
				-4.031790012959391e-09,
				0.025312641635537148,
				-4.225867655804905e-09
			]
		},
		{
			"children":[
				31
			],
			"name":"middle_02_r",
			"rotation":[
				2.508721586025331e-08,
				7.115919942179971e-08,
				-0.0032939831726253033,
				0.9999945759773254
			],
			"translation":[
				-2.601154847070575e-10,
				0.03142296522855759,
				3.098321599281917e-08
			]
		},
		{
			"children":[
				32
			],
			"name":"middle_01_r",
			"rotation":[
				-0.007645443081855774,
				-0.7070627808570862,
				0.007645389065146446,
				0.707068145275116
			],
			"scale":[
				0.9999999403953552,
				0.9999998211860657,
				0.9999999403953552
			],
			"translation":[
				-0.001600034418515861,
				0.07445710152387619,
				0.009235198609530926
			]
		},
		{
			"name":"pinky_04_leaf_r",
			"rotation":[
				-2.2351745343485163e-08,
				1,
				-1.1248906537156267e-13,
				3.6517765238386346e-06
			],
			"scale":[
				1,
				0.9999997019767761,
				1
			],
			"translation":[
				4.149114829488099e-09,
				0.01801779866218567,
				8.833112019601685e-09
			]
		},
		{
			"children":[
				34
			],
			"name":"pinky_03_r",
			"rotation":[
				1.2363236656653953e-08,
				-3.906613921245139e-11,
				-0.0016873504500836134,
				0.9999985694885254
			],
			"scale":[
				0.9999999403953552,
				1,
				1
			],
			"translation":[
				6.010850484017283e-09,
				0.02302624098956585,
				2.528369691390253e-08
			]
		},
		{
			"children":[
				35
			],
			"name":"pinky_02_r",
			"rotation":[
				-5.161724381252952e-09,
				7.128955559210226e-08,
				0.0012688926653936505,
				0.9999991655349731
			],
			"translation":[
				-2.143679012078792e-09,
				0.026527130976319313,
				2.5234882627955812e-08
			]
		},
		{
			"children":[
				36
			],
			"name":"pinky_01_r",
			"rotation":[
				-0.010139239951968193,
				-0.7070314288139343,
				0.010139165446162224,
				0.7070367336273193
			],
			"scale":[
				0.9999998807907104,
				0.9999997615814209,
				1
			],
			"translation":[
				-0.0033000889234244823,
				0.06039384752511978,
				-0.029303161427378654
			]
		},
		{
			"name":"ring_04_leaf_r",
			"rotation":[
				-2.3283050487599155e-10,
				1,
				-3.497202527569243e-15,
				3.65177675121231e-06
			],
			"translation":[
				-1.5488694771192968e-09,
				0.024401837959885597,
				-5.60245183578445e-09
			]
		},
		{
			"children":[
				38
			],
			"name":"ring_03_r",
			"rotation":[
				-2.9644096954939414e-08,
				1.0507590630925989e-10,
				0.004046387504786253,
				0.9999918341636658
			],
			"translation":[
				-1.5279510989785194e-10,
				0.02380025014281273,
				-4.572096656829672e-08
			]
		},
		{
			"children":[
				39
			],
			"name":"ring_02_r",
			"rotation":[
				9.240189946524424e-09,
				7.081045083623394e-08,
				-0.0012103411136195064,
				0.9999992847442627
			],
			"scale":[
				1,
				1,
				0.9999999403953552
			],
			"translation":[
				-2.091837814077735e-11,
				0.03020067699253559,
				-2.5969651318291653e-08
			]
		},
		{
			"children":[
				40
			],
			"name":"ring_01_r",
			"rotation":[
				0.0035180882550776005,
				-0.7070953845977783,
				-0.003518064506351948,
				0.7071006894111633
			],
			"scale":[
				1,
				1.0000001192092896,
				1
			],
			"translation":[
				-0.0019000902539119124,
				0.06940748542547226,
				-0.01195139717310667
			]
		},
		{
			"name":"thumb_04_leaf_r",
			"rotation":[
				-3.196169018337969e-08,
				-0.4856354296207428,
				3.485155843918619e-07,
				0.8741614818572998
			],
			"translation":[
				5.7843863032758236e-08,
				0.02696838788688183,
				0
			]
		},
		{
			"children":[
				42
			],
			"name":"thumb_03_r",
			"rotation":[
				-0.0012693667085841298,
				4.2631361907297105e-07,
				0.0012128946837037802,
				0.9999984502792358
			],
			"scale":[
				1,
				0.9999999403953552,
				1.0000001192092896
			],
			"translation":[
				7.75253283791244e-09,
				0.030748451128602028,
				4.190951585769653e-09
			]
		},
		{
			"children":[
				43
			],
			"name":"thumb_02_r",
			"rotation":[
				0.0025069748517125845,
				1.978555337700527e-05,
				-0.0008732423302717507,
				0.9999964833259583
			],
			"scale":[
				1.0000001192092896,
				1,
				1
			],
			"translation":[
				7.056223694235086e-08,
				0.03090081736445427,
				5.587935447692871e-09
			]
		},
		{
			"children":[
				44
			],
			"name":"thumb_01_r",
			"rotation":[
				0.2634226381778717,
				-0.9451063871383667,
				-0.1888020932674408,
				0.04166863113641739
			],
			"translation":[
				-0.008599999360740185,
				-0.002529026009142399,
				0.025861648842692375
			]
		},
		{
			"children":[
				29,
				33,
				37,
				41,
				45
			],
			"name":"hand_r",
			"rotation":[
				-0.02269919402897358,
				1.6685000900906743e-06,
				4.4287478573323824e-08,
				0.999742329120636
			],
			"scale":[
				1,
				0.9999999403953552,
				1
			],
			"translation":[
				1.967109497513775e-08,
				0.21508942544460297,
				1.1823431123048067e-10
			]
		},
		{
			"children":[
				46
			],
			"name":"lowerarm_r",
			"rotation":[
				0.023572465404868126,
				1.784859335884903e-07,
				-8.782301108567481e-08,
				0.9997221231460571
			],
			"scale":[
				1,
				1.0000001192092896,
				1
			],
			"translation":[
				-5.89149706797798e-08,
				0.20743483304977417,
				1.3947101251687855e-09
			]
		},
		{
			"children":[
				47
			],
			"name":"upperarm_r",
			"rotation":[
				0.17247338593006134,
				-0.6859287619590759,
				0.17183834314346313,
				0.685730516910553
			],
			"translation":[
				0.0014498346718028188,
				0.12171714007854462,
				-0.010585884563624859
			]
		},
		{
			"children":[
				48
			],
			"name":"clavicle_r",
			"rotation":[
				-0.547312319278717,
				0.32054534554481506,
				0.3912510871887207,
				0.6668002009391785
			],
			"scale":[
				0.9999999403953552,
				1,
				1
			],
			"translation":[
				-0.025299999862909317,
				0.11536432802677155,
				0.03864765912294388
			]
		},
		{
			"children":[
				1,
				25,
				49
			],
			"name":"spine_03",
			"rotation":[
				-0.10070359706878662,
				-1.013119505145011e-19,
				-2.894627111397542e-20,
				0.9949164390563965
			],
			"scale":[
				1,
				1.0000001192092896,
				1
			],
			"translation":[
				0,
				0.10910121351480484,
				0
			]
		},
		{
			"children":[
				50
			],
			"name":"spine_02",
			"rotation":[
				-0.05562014505267143,
				-4.992260437575169e-05,
				-2.7810069695988204e-06,
				0.9984520077705383
			],
			"scale":[
				1,
				0.9999998211860657,
				1
			],
			"translation":[
				8.100187187665142e-13,
				0.09513803571462631,
				-6.05359673500061e-09
			]
		},
		{
			"children":[
				51
			],
			"name":"spine_01",
			"rotation":[
				-0.06406094133853912,
				4.989730587112717e-05,
				-3.203046844646451e-06,
				0.99794602394104
			],
			"scale":[
				1,
				1,
				0.9999999403953552
			],
			"translation":[
				0,
				0.10923808813095093,
				4.6566128730773926e-09
			]
		},
		{
			"name":"ball_leaf_l",
			"rotation":[
				7.764701723193967e-23,
				-4.3711398944878965e-08,
				-1.776356733521132e-15,
				1
			],
			"translation":[
				-1.1190091075974351e-09,
				0.05879991129040718,
				-1.942535021726144e-11
			]
		},
		{
			"children":[
				53
			],
			"name":"ball_l",
			"rotation":[
				-8.340490076363949e-09,
				-0.981627345085144,
				0.19080819189548492,
				4.29082938069314e-08
			],
			"scale":[
				1,
				0.9999995231628418,
				0.9999998807907104
			],
			"translation":[
				0,
				0.1286689192056656,
				-2.7939677238464355e-09
			]
		},
		{
			"children":[
				54
			],
			"name":"foot_l",
			"rotation":[
				-0.5978748798370361,
				0,
				0,
				0.8015894293785095
			],
			"scale":[
				1,
				0.9999998807907104,
				0.9999998807907104
			],
			"translation":[
				0,
				0.4022086262702942,
				0
			]
		},
		{
			"children":[
				55
			],
			"name":"calf_l",
			"rotation":[
				0.07113900035619736,
				0,
				0,
				0.9974663853645325
			],
			"scale":[
				1,
				0.9999999403953552,
				1
			],
			"translation":[
				-7.450580596923828e-09,
				0.3535993695259094,
				-1.3969838619232178e-09
			]
		},
		{
			"children":[
				56
			],
			"name":"thigh_l",
			"rotation":[
				0.9893885850906372,
				0,
				0,
				0.14529357850551605
			],
			"scale":[
				1,
				1,
				1.0000014305114746
			],
			"translation":[
				0.09610000252723694,
				0.009004883468151093,
				-0.007704656571149826
			]
		},
		{
			"name":"ball_leaf_r",
			"rotation":[
				7.764701723193967e-23,
				-4.3711398944878965e-08,
				-1.776356733521132e-15,
				1
			],
			"translation":[
				-1.1190091075974351e-09,
				0.05879991129040718,
				1.942535021726144e-11
			]
		},
		{
			"children":[
				58
			],
			"name":"ball_r",
			"rotation":[
				-8.340490076363949e-09,
				-0.981627345085144,
				0.19080819189548492,
				4.29082938069314e-08
			],
			"scale":[
				1,
				0.9999995231628418,
				0.9999998807907104
			],
			"translation":[
				0,
				0.1286689192056656,
				-2.7939677238464355e-09
			]
		},
		{
			"children":[
				59
			],
			"name":"foot_r",
			"rotation":[
				-0.5978748798370361,
				0,
				0,
				0.8015894293785095
			],
			"scale":[
				1,
				0.9999998807907104,
				0.9999998807907104
			],
			"translation":[
				0,
				0.4022086262702942,
				0
			]
		},
		{
			"children":[
				60
			],
			"name":"calf_r",
			"rotation":[
				0.07113900035619736,
				0,
				0,
				0.9974663853645325
			],
			"scale":[
				1,
				0.9999999403953552,
				1
			],
			"translation":[
				7.450580596923828e-09,
				0.3535993695259094,
				-1.3969838619232178e-09
			]
		},
		{
			"children":[
				61
			],
			"name":"thigh_r",
			"rotation":[
				0.9893885850906372,
				0,
				0,
				0.14529357850551605
			],
			"scale":[
				1,
				1,
				1.0000014305114746
			],
			"translation":[
				-0.09610000252723694,
				0.009004883468151093,
				-0.007704656571149826
			]
		},
		{
			"children":[
				52,
				57,
				62
			],
			"name":"pelvis",
			"rotation":[
				0.7879320383071899,
				0,
				0,
				0.6157622933387756
			],
			"scale":[
				1,
				0.9999999403953552,
				0.9999999403953552
			],
			"translation":[
				0,
				0.03939998149871826,
				0.8040000200271606
			]
		},
		{
			"children":[
				63
			],
			"name":"root",
			"rotation":[
				-0.7071067690849304,
				0,
				0,
				0.7071067690849304
			]
		},
		{
			"mesh":0,
			"name":"Hair_BuzzedFemale_Teen",
			"skin":0
		},
		{
			"children":[
				65,
				64
			],
			"name":"Armature"
		}
	],
	"materials":[
		{
			"doubleSided":true,
			"name":"MI_Hair_1",
			"normalTexture":{
				"index":0
			},
			"pbrMetallicRoughness":{
				"baseColorTexture":{
					"index":1
				},
				"metallicFactor":0
			}
		}
	],
	"meshes":[
		{
			"name":"Hair_BuzzedFemale_Teen",
			"primitives":[
				{
					"attributes":{
						"POSITION":0,
						"NORMAL":1,
						"TEXCOORD_0":2,
						"JOINTS_0":3,
						"WEIGHTS_0":4
					},
					"indices":5,
					"material":0
				}
			]
		}
	],
	"textures":[
		{
			"sampler":0,
			"source":0
		},
		{
			"sampler":0,
			"source":1
		}
	],
	"images":[
		{
			"mimeType":"image/png",
			"name":"T_Hair_1_Normal",
			"uri":"T_Hair_1_Normal.png"
		},
		{
			"mimeType":"image/png",
			"name":"T_Hair_1_BaseColor",
			"uri":"T_Hair_1_BaseColor.png"
		}
	],
	"skins":[
		{
			"inverseBindMatrices":6,
			"joints":[
				64,
				63,
				52,
				51,
				50,
				1,
				0,
				25,
				24,
				23,
				22,
				5,
				4,
				3,
				2,
				9,
				8,
				7,
				6,
				13,
				12,
				11,
				10,
				17,
				16,
				15,
				14,
				21,
				20,
				19,
				18,
				49,
				48,
				47,
				46,
				29,
				28,
				27,
				26,
				33,
				32,
				31,
				30,
				37,
				36,
				35,
				34,
				41,
				40,
				39,
				38,
				45,
				44,
				43,
				42,
				57,
				56,
				55,
				54,
				53,
				62,
				61,
				60,
				59,
				58
			],
			"name":"Armature"
		}
	],
	"accessors":[
		{
			"bufferView":0,
			"componentType":5126,
			"count":466,
			"max":[
				0.07170360535383224,
				1.5199133157730103,
				0.07387383282184601
			],
			"min":[
				-0.07170360535383224,
				1.3661179542541504,
				-0.10475341230630875
			],
			"type":"VEC3"
		},
		{
			"bufferView":1,
			"componentType":5126,
			"count":466,
			"type":"VEC3"
		},
		{
			"bufferView":2,
			"componentType":5126,
			"count":466,
			"type":"VEC2"
		},
		{
			"bufferView":3,
			"componentType":5121,
			"count":466,
			"type":"VEC4"
		},
		{
			"bufferView":4,
			"componentType":5126,
			"count":466,
			"type":"VEC4"
		},
		{
			"bufferView":5,
			"componentType":5123,
			"count":2490,
			"type":"SCALAR"
		},
		{
			"bufferView":6,
			"componentType":5126,
			"count":65,
			"type":"MAT4"
		}
	],
	"bufferViews":[
		{
			"buffer":0,
			"byteLength":5592,
			"byteOffset":0,
			"target":34962
		},
		{
			"buffer":0,
			"byteLength":5592,
			"byteOffset":5592,
			"target":34962
		},
		{
			"buffer":0,
			"byteLength":3728,
			"byteOffset":11184,
			"target":34962
		},
		{
			"buffer":0,
			"byteLength":1864,
			"byteOffset":14912,
			"target":34962
		},
		{
			"buffer":0,
			"byteLength":7456,
			"byteOffset":16776,
			"target":34962
		},
		{
			"buffer":0,
			"byteLength":4980,
			"byteOffset":24232,
			"target":34963
		},
		{
			"buffer":0,
			"byteLength":4160,
			"byteOffset":29212
		}
	],
	"samplers":[
		{
			"magFilter":9729,
			"minFilter":9987
		}
	],
	"buffers":[
		{
			"byteLength":33372,
			"uri":"Hair_BuzzedFemale_Teen.bin"
		}
	]
}
