{
	"asset":{
		"generator":"Khronos glTF Blender I/O v4.0.44",
		"version":"2.0"
	},
	"scene":0,
	"scenes":[
		{
			"name":"Scene",
			"nodes":[
				0
			]
		}
	],
	"nodes":[
		{
			"mesh":0,
			"name":"Hair_MuttonChops_Teen"
		}
	],
	"materials":[
		{
			"doubleSided":true,
			"name":"MI_Hair_1",
			"normalTexture":{
				"index":0
			},
			"pbrMetallicRoughness":{
				"baseColorTexture":{
					"index":1
				},
				"metallicFactor":0
			}
		}
	],
	"meshes":[
		{
			"name":"Sphere.018_Retopology.002",
			"primitives":[
				{
					"attributes":{
						"POSITION":0,
						"NORMAL":1,
						"TEXCOORD_0":2
					},
					"indices":3,
					"material":0
				}
			]
		}
	],
	"textures":[
		{
			"sampler":0,
			"source":0
		},
		{
			"sampler":0,
			"source":1
		}
	],
	"images":[
		{
			"mimeType":"image/png",
			"name":"T_Hair_1_Normal",
			"uri":"T_Hair_1_Normal.png"
		},
		{
			"mimeType":"image/png",
			"name":"T_Hair_1_BaseColor",
			"uri":"T_Hair_1_BaseColor.png"
		}
	],
	"accessors":[
		{
			"bufferView":0,
			"componentType":5126,
			"count":567,
			"max":[
				0.07565641403198242,
				1.454864263534546,
				0.09194038808345795
			],
			"min":[
				-0.07556971907615662,
				1.356202244758606,
				-0.008893544785678387
			],
			"type":"VEC3"
		},
		{
			"bufferView":1,
			"componentType":5126,
			"count":567,
			"type":"VEC3"
		},
		{
			"bufferView":2,
			"componentType":5126,
			"count":567,
			"type":"VEC2"
		},
		{
			"bufferView":3,
			"componentType":5123,
			"count":2988,
			"type":"SCALAR"
		}
	],
	"bufferViews":[
		{
			"buffer":0,
			"byteLength":6804,
			"byteOffset":0,
			"target":34962
		},
		{
			"buffer":0,
			"byteLength":6804,
			"byteOffset":6804,
			"target":34962
		},
		{
			"buffer":0,
			"byteLength":4536,
			"byteOffset":13608,
			"target":34962
		},
		{
			"buffer":0,
			"byteLength":5976,
			"byteOffset":18144,
			"target":34963
		}
	],
	"samplers":[
		{
			"magFilter":9729,
			"minFilter":9987
		}
	],
	"buffers":[
		{
			"byteLength":24120,
			"uri":"Hair_MuttonChops_Teen.bin"
		}
	]
}
