{
	"asset":{
		"generator":"Khronos glTF Blender I/O v4.0.44",
		"version":"2.0"
	},
	"scene":0,
	"scenes":[
		{
			"name":"Scene",
			"nodes":[
				0
			]
		}
	],
	"nodes":[
		{
			"mesh":0,
			"name":"Hair_SimpleParted_Teen"
		}
	],
	"materials":[
		{
			"doubleSided":true,
			"name":"MI_Hair_1",
			"normalTexture":{
				"index":0
			},
			"pbrMetallicRoughness":{
				"baseColorTexture":{
					"index":1
				},
				"metallicFactor":0
			}
		}
	],
	"meshes":[
		{
			"name":"Plane.003",
			"primitives":[
				{
					"attributes":{
						"POSITION":0,
						"NORMAL":1,
						"TEXCOORD_0":2
					},
					"indices":3,
					"material":0
				}
			]
		}
	],
	"textures":[
		{
			"sampler":0,
			"source":0
		},
		{
			"sampler":0,
			"source":1
		}
	],
	"images":[
		{
			"mimeType":"image/png",
			"name":"T_Hair_1_Normal",
			"uri":"T_Hair_1_Normal.png"
		},
		{
			"mimeType":"image/png",
			"name":"T_Hair_1_BaseColor",
			"uri":"T_Hair_1_BaseColor.png"
		}
	],
	"accessors":[
		{
			"bufferView":0,
			"componentType":5126,
			"count":757,
			"max":[
				0.08417893946170807,
				1.5958629846572876,
				0.07420673966407776
			],
			"min":[
				-0.0796872228384018,
				1.4285029172897339,
				-0.10042828321456909
			],
			"type":"VEC3"
		},
		{
			"bufferView":1,
			"componentType":5126,
			"count":757,
			"type":"VEC3"
		},
		{
			"bufferView":2,
			"componentType":5126,
			"count":757,
			"type":"VEC2"
		},
		{
			"bufferView":3,
			"componentType":5123,
			"count":3903,
			"type":"SCALAR"
		}
	],
	"bufferViews":[
		{
			"buffer":0,
			"byteLength":9084,
			"byteOffset":0,
			"target":34962
		},
		{
			"buffer":0,
			"byteLength":9084,
			"byteOffset":9084,
			"target":34962
		},
		{
			"buffer":0,
			"byteLength":6056,
			"byteOffset":18168,
			"target":34962
		},
		{
			"buffer":0,
			"byteLength":7806,
			"byteOffset":24224,
			"target":34963
		}
	],
	"samplers":[
		{
			"magFilter":9729,
			"minFilter":9987
		}
	],
	"buffers":[
		{
			"byteLength":32032,
			"uri":"Hair_SimpleParted_Teen.bin"
		}
	]
}
