{
	"asset":{
		"generator":"Khronos glTF Blender I/O v4.0.44",
		"version":"2.0"
	},
	"scene":0,
	"scenes":[
		{
			"name":"Scene",
			"nodes":[
				0
			]
		}
	],
	"nodes":[
		{
			"mesh":0,
			"name":"Eyebrows_Thick_Teen"
		}
	],
	"materials":[
		{
			"doubleSided":true,
			"name":"MI_Hair_1",
			"normalTexture":{
				"index":0
			},
			"pbrMetallicRoughness":{
				"baseColorTexture":{
					"index":1
				},
				"metallicFactor":0
			}
		}
	],
	"meshes":[
		{
			"name":"Cube.007",
			"primitives":[
				{
					"attributes":{
						"POSITION":0,
						"NORMAL":1,
						"TEXCOORD_0":2
					},
					"indices":3,
					"material":0
				}
			]
		}
	],
	"textures":[
		{
			"sampler":0,
			"source":0
		},
		{
			"sampler":0,
			"source":1
		}
	],
	"images":[
		{
			"mimeType":"image/png",
			"name":"T_Hair_1_Normal",
			"uri":"T_Hair_1_Normal.png"
		},
		{
			"mimeType":"image/png",
			"name":"T_Hair_1_BaseColor",
			"uri":"T_Hair_1_BaseColor.png"
		}
	],
	"accessors":[
		{
			"bufferView":0,
			"componentType":5126,
			"count":626,
			"max":[
				0.05894595757126808,
				1.493438482284546,
				0.0880454033613205
			],
			"min":[
				-0.05885925516486168,
				1.4585468769073486,
				0.05377187207341194
			],
			"type":"VEC3"
		},
		{
			"bufferView":1,
			"componentType":5126,
			"count":626,
			"type":"VEC3"
		},
		{
			"bufferView":2,
			"componentType":5126,
			"count":626,
			"type":"VEC2"
		},
		{
			"bufferView":3,
			"componentType":5123,
			"count":2826,
			"type":"SCALAR"
		}
	],
	"bufferViews":[
		{
			"buffer":0,
			"byteLength":7512,
			"byteOffset":0,
			"target":34962
		},
		{
			"buffer":0,
			"byteLength":7512,
			"byteOffset":7512,
			"target":34962
		},
		{
			"buffer":0,
			"byteLength":5008,
			"byteOffset":15024,
			"target":34962
		},
		{
			"buffer":0,
			"byteLength":5652,
			"byteOffset":20032,
			"target":34963
		}
	],
	"samplers":[
		{
			"magFilter":9729,
			"minFilter":9987
		}
	],
	"buffers":[
		{
			"byteLength":25684,
			"uri":"Eyebrows_Thick_Teen.bin"
		}
	]
}
