{
	"asset":{
		"generator":"Khronos glTF Blender I/O v4.0.44",
		"version":"2.0"
	},
	"scene":0,
	"scenes":[
		{
			"name":"Scene",
			"nodes":[
				0
			]
		}
	],
	"nodes":[
		{
			"mesh":0,
			"name":"Hair_Ponytail_2"
		}
	],
	"materials":[
		{
			"doubleSided":true,
			"name":"MI_Hair_2",
			"normalTexture":{
				"index":0
			},
			"pbrMetallicRoughness":{
				"baseColorTexture":{
					"index":1
				},
				"metallicFactor":0,
				"roughnessFactor":0.7121212482452393
			}
		}
	],
	"meshes":[
		{
			"name":"NurbsCurve.060",
			"primitives":[
				{
					"attributes":{
						"POSITION":0,
						"NORMAL":1,
						"TEXCOORD_0":2
					},
					"indices":3,
					"material":0
				}
			]
		}
	],
	"textures":[
		{
			"sampler":0,
			"source":0
		},
		{
			"sampler":0,
			"source":1
		}
	],
	"images":[
		{
			"mimeType":"image/png",
			"name":"T_Hair_2_Normal",
			"uri":"T_Hair_2_Normal.png"
		},
		{
			"mimeType":"image/png",
			"name":"T_Hair_2_BaseColor",
			"uri":"T_Hair_2_BaseColor.png"
		}
	],
	"accessors":[
		{
			"bufferView":0,
			"componentType":5126,
			"count":2374,
			"max":[
				0.08866387605667114,
				1.7747725248336792,
				0.08297595381736755
			],
			"min":[
				-0.08866387605667114,
				1.447021484375,
				-0.2314385175704956
			],
			"type":"VEC3"
		},
		{
			"bufferView":1,
			"componentType":5126,
			"count":2374,
			"type":"VEC3"
		},
		{
			"bufferView":2,
			"componentType":5126,
			"count":2374,
			"type":"VEC2"
		},
		{
			"bufferView":3,
			"componentType":5123,
			"count":6822,
			"type":"SCALAR"
		}
	],
	"bufferViews":[
		{
			"buffer":0,
			"byteLength":28488,
			"byteOffset":0,
			"target":34962
		},
		{
			"buffer":0,
			"byteLength":28488,
			"byteOffset":28488,
			"target":34962
		},
		{
			"buffer":0,
			"byteLength":18992,
			"byteOffset":56976,
			"target":34962
		},
		{
			"buffer":0,
			"byteLength":13644,
			"byteOffset":75968,
			"target":34963
		}
	],
	"samplers":[
		{
			"magFilter":9729,
			"minFilter":9987
		}
	],
	"buffers":[
		{
			"byteLength":89612,
			"uri":"Hair_Ponytail_2.bin"
		}
	]
}
