{
	"asset":{
		"generator":"Khronos glTF Blender I/O v4.0.44",
		"version":"2.0"
	},
	"scene":0,
	"scenes":[
		{
			"name":"Scene",
			"nodes":[
				0
			]
		}
	],
	"nodes":[
		{
			"mesh":0,
			"name":"Hair_Bob"
		}
	],
	"materials":[
		{
			"doubleSided":true,
			"name":"MI_Hair_2",
			"normalTexture":{
				"index":0
			},
			"pbrMetallicRoughness":{
				"baseColorTexture":{
					"index":1
				},
				"metallicFactor":0,
				"roughnessFactor":0.7121212482452393
			}
		}
	],
	"meshes":[
		{
			"name":"NurbsCurve.057",
			"primitives":[
				{
					"attributes":{
						"POSITION":0,
						"NORMAL":1,
						"TEXCOORD_0":2
					},
					"indices":3,
					"material":0
				}
			]
		}
	],
	"textures":[
		{
			"sampler":0,
			"source":0
		},
		{
			"sampler":0,
			"source":1
		}
	],
	"images":[
		{
			"mimeType":"image/png",
			"name":"T_Hair_2_Normal",
			"uri":"T_Hair_2_Normal.png"
		},
		{
			"mimeType":"image/png",
			"name":"T_Hair_2_BaseColor",
			"uri":"T_Hair_2_BaseColor.png"
		}
	],
	"accessors":[
		{
			"bufferView":0,
			"componentType":5126,
			"count":3796,
			"max":[
				0.10186767578125,
				1.776824951171875,
				0.10694625973701477
			],
			"min":[
				-0.10186767578125,
				1.5513858795166016,
				-0.140655517578125
			],
			"type":"VEC3"
		},
		{
			"bufferView":1,
			"componentType":5126,
			"count":3796,
			"type":"VEC3"
		},
		{
			"bufferView":2,
			"componentType":5126,
			"count":3796,
			"type":"VEC2"
		},
		{
			"bufferView":3,
			"componentType":5123,
			"count":10749,
			"type":"SCALAR"
		}
	],
	"bufferViews":[
		{
			"buffer":0,
			"byteLength":45552,
			"byteOffset":0,
			"target":34962
		},
		{
			"buffer":0,
			"byteLength":45552,
			"byteOffset":45552,
			"target":34962
		},
		{
			"buffer":0,
			"byteLength":30368,
			"byteOffset":91104,
			"target":34962
		},
		{
			"buffer":0,
			"byteLength":21498,
			"byteOffset":121472,
			"target":34963
		}
	],
	"samplers":[
		{
			"magFilter":9729,
			"minFilter":9987
		}
	],
	"buffers":[
		{
			"byteLength":142972,
			"uri":"Hair_Bob.bin"
		}
	]
}
