{
	"asset":{
		"generator":"Khronos glTF Blender I/O v4.0.44",
		"version":"2.0"
	},
	"scene":0,
	"scenes":[
		{
			"name":"Scene",
			"nodes":[
				0
			]
		}
	],
	"nodes":[
		{
			"mesh":0,
			"name":"Hair_Ponytail"
		}
	],
	"materials":[
		{
			"doubleSided":true,
			"name":"MI_Hair_1",
			"normalTexture":{
				"index":0
			},
			"pbrMetallicRoughness":{
				"baseColorTexture":{
					"index":1
				},
				"metallicFactor":0
			}
		}
	],
	"meshes":[
		{
			"name":"NurbsCurve.004",
			"primitives":[
				{
					"attributes":{
						"POSITION":0,
						"NORMAL":1,
						"TEXCOORD_0":2
					},
					"indices":3,
					"material":0
				}
			]
		}
	],
	"textures":[
		{
			"sampler":0,
			"source":0
		},
		{
			"sampler":0,
			"source":1
		}
	],
	"images":[
		{
			"mimeType":"image/png",
			"name":"T_Hair_1_Normal",
			"uri":"T_Hair_1_Normal.png"
		},
		{
			"mimeType":"image/png",
			"name":"T_Hair_1_BaseColor",
			"uri":"T_Hair_1_BaseColor.png"
		}
	],
	"accessors":[
		{
			"bufferView":0,
			"componentType":5126,
			"count":1560,
			"max":[
				0.08802653104066849,
				1.8305251598358154,
				0.08756853640079498
			],
			"min":[
				-0.08802653104066849,
				1.6169114112854004,
				-0.21362316608428955
			],
			"type":"VEC3"
		},
		{
			"bufferView":1,
			"componentType":5126,
			"count":1560,
			"type":"VEC3"
		},
		{
			"bufferView":2,
			"componentType":5126,
			"count":1560,
			"type":"VEC2"
		},
		{
			"bufferView":3,
			"componentType":5123,
			"count":4767,
			"type":"SCALAR"
		}
	],
	"bufferViews":[
		{
			"buffer":0,
			"byteLength":18720,
			"byteOffset":0,
			"target":34962
		},
		{
			"buffer":0,
			"byteLength":18720,
			"byteOffset":18720,
			"target":34962
		},
		{
			"buffer":0,
			"byteLength":12480,
			"byteOffset":37440,
			"target":34962
		},
		{
			"buffer":0,
			"byteLength":9534,
			"byteOffset":49920,
			"target":34963
		}
	],
	"samplers":[
		{
			"magFilter":9729,
			"minFilter":9987
		}
	],
	"buffers":[
		{
			"byteLength":59456,
			"uri":"Hair_Ponytail.bin"
		}
	]
}
