{
	"asset":{
		"generator":"Khronos glTF Blender I/O v4.0.44",
		"version":"2.0"
	},
	"scene":0,
	"scenes":[
		{
			"name":"Scene",
			"nodes":[
				0
			]
		}
	],
	"nodes":[
		{
			"mesh":0,
			"name":"Hair_Moustache"
		}
	],
	"materials":[
		{
			"doubleSided":true,
			"name":"MI_Hair_1",
			"normalTexture":{
				"index":0
			},
			"pbrMetallicRoughness":{
				"baseColorTexture":{
					"index":1
				},
				"metallicFactor":0
			}
		}
	],
	"meshes":[
		{
			"name":"Sphere.021_Retopology.001",
			"primitives":[
				{
					"attributes":{
						"POSITION":0,
						"NORMAL":1,
						"TEXCOORD_0":2
					},
					"indices":3,
					"material":0
				}
			]
		}
	],
	"textures":[
		{
			"sampler":0,
			"source":0
		},
		{
			"sampler":0,
			"source":1
		}
	],
	"images":[
		{
			"mimeType":"image/png",
			"name":"T_Hair_1_Normal",
			"uri":"T_Hair_1_Normal.png"
		},
		{
			"mimeType":"image/png",
			"name":"T_Hair_1_BaseColor",
			"uri":"T_Hair_1_BaseColor.png"
		}
	],
	"accessors":[
		{
			"bufferView":0,
			"componentType":5126,
			"count":243,
			"max":[
				0.048898763954639435,
				1.6444885730743408,
				0.09860634803771973
			],
			"min":[
				-0.048898763954639435,
				1.6131653785705566,
				0.06224063038825989
			],
			"type":"VEC3"
		},
		{
			"bufferView":1,
			"componentType":5126,
			"count":243,
			"type":"VEC3"
		},
		{
			"bufferView":2,
			"componentType":5126,
			"count":243,
			"type":"VEC2"
		},
		{
			"bufferView":3,
			"componentType":5123,
			"count":1284,
			"type":"SCALAR"
		}
	],
	"bufferViews":[
		{
			"buffer":0,
			"byteLength":2916,
			"byteOffset":0,
			"target":34962
		},
		{
			"buffer":0,
			"byteLength":2916,
			"byteOffset":2916,
			"target":34962
		},
		{
			"buffer":0,
			"byteLength":1944,
			"byteOffset":5832,
			"target":34962
		},
		{
			"buffer":0,
			"byteLength":2568,
			"byteOffset":7776,
			"target":34963
		}
	],
	"samplers":[
		{
			"magFilter":9729,
			"minFilter":9987
		}
	],
	"buffers":[
		{
			"byteLength":10344,
			"uri":"Hair_Moustache.bin"
		}
	]
}
