{
	"asset":{
		"generator":"Khronos glTF Blender I/O v4.0.44",
		"version":"2.0"
	},
	"scene":0,
	"scenes":[
		{
			"name":"Scene",
			"nodes":[
				0
			]
		}
	],
	"nodes":[
		{
			"mesh":0,
			"name":"Hair_Ponytail_2_Teen"
		}
	],
	"materials":[
		{
			"doubleSided":true,
			"name":"MI_Hair_2",
			"normalTexture":{
				"index":0
			},
			"pbrMetallicRoughness":{
				"baseColorTexture":{
					"index":1
				},
				"metallicFactor":0,
				"roughnessFactor":0.7121212482452393
			}
		}
	],
	"meshes":[
		{
			"name":"NurbsCurve.008",
			"primitives":[
				{
					"attributes":{
						"POSITION":0,
						"NORMAL":1,
						"TEXCOORD_0":2
					},
					"indices":3,
					"material":0
				}
			]
		}
	],
	"textures":[
		{
			"sampler":0,
			"source":0
		},
		{
			"sampler":0,
			"source":1
		}
	],
	"images":[
		{
			"mimeType":"image/png",
			"name":"T_Hair_2_Normal",
			"uri":"T_Hair_2_Normal.png"
		},
		{
			"mimeType":"image/png",
			"name":"T_Hair_2_BaseColor",
			"uri":"T_Hair_2_BaseColor.png"
		}
	],
	"accessors":[
		{
			"bufferView":0,
			"componentType":5126,
			"count":2605,
			"max":[
				0.08013901859521866,
				1.5263581275939941,
				0.0813809409737587
			],
			"min":[
				-0.08013901859521866,
				1.2301197052001953,
				-0.20459477603435516
			],
			"type":"VEC3"
		},
		{
			"bufferView":1,
			"componentType":5126,
			"count":2605,
			"type":"VEC3"
		},
		{
			"bufferView":2,
			"componentType":5126,
			"count":2605,
			"type":"VEC2"
		},
		{
			"bufferView":3,
			"componentType":5123,
			"count":7326,
			"type":"SCALAR"
		}
	],
	"bufferViews":[
		{
			"buffer":0,
			"byteLength":31260,
			"byteOffset":0,
			"target":34962
		},
		{
			"buffer":0,
			"byteLength":31260,
			"byteOffset":31260,
			"target":34962
		},
		{
			"buffer":0,
			"byteLength":20840,
			"byteOffset":62520,
			"target":34962
		},
		{
			"buffer":0,
			"byteLength":14652,
			"byteOffset":83360,
			"target":34963
		}
	],
	"samplers":[
		{
			"magFilter":9729,
			"minFilter":9987
		}
	],
	"buffers":[
		{
			"byteLength":98012,
			"uri":"Hair_Ponytail_2_Teen.bin"
		}
	]
}
