{
	"asset":{
		"generator":"Khronos glTF Blender I/O v4.0.44",
		"version":"2.0"
	},
	"scene":0,
	"scenes":[
		{
			"name":"Scene",
			"nodes":[
				0
			]
		}
	],
	"nodes":[
		{
			"mesh":0,
			"name":"Hair_Dreads_Teen"
		}
	],
	"materials":[
		{
			"doubleSided":true,
			"name":"MI_Hair_1",
			"normalTexture":{
				"index":0
			},
			"pbrMetallicRoughness":{
				"baseColorTexture":{
					"index":1
				},
				"metallicFactor":0
			}
		}
	],
	"meshes":[
		{
			"name":"Cylinder.003",
			"primitives":[
				{
					"attributes":{
						"POSITION":0,
						"NORMAL":1,
						"TEXCOORD_0":2
					},
					"indices":3,
					"material":0
				}
			]
		}
	],
	"textures":[
		{
			"sampler":0,
			"source":0
		},
		{
			"sampler":0,
			"source":1
		}
	],
	"images":[
		{
			"mimeType":"image/png",
			"name":"T_Hair_1_Normal",
			"uri":"T_Hair_1_Normal.png"
		},
		{
			"mimeType":"image/png",
			"name":"T_Hair_1_BaseColor",
			"uri":"T_Hair_1_BaseColor.png"
		}
	],
	"accessors":[
		{
			"bufferView":0,
			"componentType":5126,
			"count":3274,
			"max":[
				0.07442954182624817,
				1.6075345277786255,
				0.09252546727657318
			],
			"min":[
				-0.0730326846241951,
				1.413389801979065,
				-0.11328689754009247
			],
			"type":"VEC3"
		},
		{
			"bufferView":1,
			"componentType":5126,
			"count":3274,
			"type":"VEC3"
		},
		{
			"bufferView":2,
			"componentType":5126,
			"count":3274,
			"type":"VEC2"
		},
		{
			"bufferView":3,
			"componentType":5123,
			"count":14910,
			"type":"SCALAR"
		}
	],
	"bufferViews":[
		{
			"buffer":0,
			"byteLength":39288,
			"byteOffset":0,
			"target":34962
		},
		{
			"buffer":0,
			"byteLength":39288,
			"byteOffset":39288,
			"target":34962
		},
		{
			"buffer":0,
			"byteLength":26192,
			"byteOffset":78576,
			"target":34962
		},
		{
			"buffer":0,
			"byteLength":29820,
			"byteOffset":104768,
			"target":34963
		}
	],
	"samplers":[
		{
			"magFilter":9729,
			"minFilter":9987
		}
	],
	"buffers":[
		{
			"byteLength":134588,
			"uri":"Hair_Dreads_Teen.bin"
		}
	]
}
